{"title":"{TIrG}The One.DVDRip.aaaevilacharya","uid":5874554,"size":671784097,"categoryP":"video","categoryS":"movies","magnet":"?xt=urn:btih:593392e1f6ff6785d804b6d710dc44049cbe5ca7&amp;dn=%7BTIrG%7DThe+One.DVDRip.aaaevilacharya&amp;tr=udp%3A%2F%2Ftracker.openbittorrent.com%3A80&amp;tr=udp%3A%2F%2Fopen.demonii.com%3A1337&amp;tr=udp%3A%2F%2Ftracker.coppersurfer.tk%3A6969&amp;tr=udp%3A%2F%2Fexodus.desync.com%3A6969","seeders":0,"leechers":1,"uploader":"achaevil","files":3,"time":1286565616,"description":"General\nComplete name : {TIrG}The One.DVDRip.aaaevilacharya.mkv\nFormat : Matroska\nFile size : 641 MiB\nDuration : 1h 27mn\nOverall bit rate : 1 026 Kbps\nEncoded date : UTC 2010-10-07 17:27:49\n\n\nVideo\nID : 1\nFormat : MPEG-4 Visual\nFormat profile : Simple@L1\nFormat settings, BVOP : No\nFormat settings, QPel : No\nFormat settings, GMC : No warppoints\nFormat settings, Matrix : Default (H.263)\nCodec ID : DX50\nCodec ID/Hint : DivX 5\nDuration : 1h 27mn\nBit rate : 893 Kbps\nWidth : 720 pixels\nHeight : 292 pixels\nDisplay aspect ratio : 2.466\nFrame rate : 23.976 fps\nColor space : YUV\nChroma subsampling : 4:2:0\nBit depth : 8 bits\nScan type : Interlaced\nScan order : Top Field First\nBits/(Pixel*Frame) : 0.177\nStream size : 558 MiB (87%)\nTitle : aaaevilacharya\nWriting library : Lavc52.30.1\nLanguage : English\n\nAudio\nID : 2\nFormat : MPEG Audio\nFormat version : Version 1\nFormat profile : Layer 3\nMode : Joint stereo\nMode extension : MS Stereo\nCodec ID : A_MPEG/L3\nCodec ID/Hint : MP3\nDuration : 1h 27mn\nBit rate mode : Constant\nBit rate : 112 Kbps\nChannel(s) : 2 channels\nSampling rate : 44.1 KHz\nStream size : 70.0 MiB (11%)\nTitle : aaaevilacharya\nWriting library : LAME3.98.2\nLanguage : English\n\nscreenshots/\n &lt;a href=&quot;\nhttp://img219.imageshack.us/img219/7510/vlcsnap2010100712h38m51.png&quot; rel=&quot;nofollow&quot; target=&quot;_NEW&quot;&gt;\nhttp://img219.imageshack.us/img219/7510/vlcsnap2010100712h38m51.png&lt;/a&gt;\n &lt;a href=&quot;\nhttp://img89.imageshack.us/img89/8158/vlcsnap2010100712h39m42.png&quot; rel=&quot;nofollow&quot; target=&quot;_NEW&quot;&gt;\nhttp://img89.imageshack.us/img89/8158/vlcsnap2010100712h39m42.png&lt;/a&gt;\n &lt;a href=&quot;\nhttp://img2.imageshack.us/img2/5760/vlcsnap2010100712h36m07.png&quot; rel=&quot;nofollow&quot; target=&quot;_NEW&quot;&gt;\nhttp://img2.imageshack.us/img2/5760/vlcsnap2010100712h36m07.png&lt;/a&gt;\n &lt;a href=&quot;\nhttp://img38.imageshack.us/img38/5523/vlcsnap2010100712h36m50.png&quot; rel=&quot;nofollow&quot; target=&quot;_NEW&quot;&gt;\nhttp://img38.imageshack.us/img38/5523/vlcsnap2010100712h36m50.png&lt;/a&gt;\n &lt;a href=&quot;\nhttp://img580.imageshack.us/img580/7711/vlcsnap2010100712h37m33.png&quot; rel=&quot;nofollow&quot; target=&quot;_NEW&quot;&gt;\nhttp://img580.imageshack.us/img580/7711/vlcsnap2010100712h37m33.png&lt;/a&gt;\n &lt;a href=&quot;\nhttp://img100.imageshack.us/img100/3720/vlcsnap2010100712h37m53.png&quot; rel=&quot;nofollow&quot; target=&quot;_NEW&quot;&gt;\nhttp://img100.imageshack.us/img100/3720/vlcsnap2010100712h37m53.png&lt;/a&gt;\n &lt;a href=&quot;\nhttp://img140.imageshack.us/img140/5687/vlcsnap2010100712h38m07.png&quot; rel=&quot;nofollow&quot; target=&quot;_NEW&quot;&gt;\nhttp://img140.imageshack.us/img140/5687/vlcsnap2010100712h38m07.png&lt;/a&gt;\n\n\n\n &lt;a href=&quot;\nhttp://img233.imageshack.us/img233/8597/engtheone.jpg&quot; rel=&quot;nofollow&quot; target=&quot;_NEW&quot;&gt;\nhttp://img233.imageshack.us/img233/8597/engtheone.jpg&lt;/a&gt;\n","torrent":{"xt":"urn:btih:593392e1f6ff6785d804b6d710dc44049cbe5ca7","amp;dn":"%7BTIrG%7DThe+One.DVDRip.aaaevilacharya","amp;tr":["udp%3A%2F%2Ftracker.openbittorrent.com%3A80","udp%3A%2F%2Fopen.demonii.com%3A1337","udp%3A%2F%2Ftracker.coppersurfer.tk%3A6969","udp%3A%2F%2Fexodus.desync.com%3A6969"],"infoHash":"593392e1f6ff6785d804b6d710dc44049cbe5ca7","infoHashBuffer":{"type":"Buffer","data":[89,51,146,225,246,255,103,133,216,4,182,215,16,220,68,4,156,190,92,167]},"announce":[],"urlList":[]}}